<?xml version="1.0" standalone="no"?>
<!DOCTYPE svg PUBLIC "-//W3C//DTD SVG 20010904//EN"
 "http://www.w3.org/TR/2001/REC-SVG-20010904/DTD/svg10.dtd">
<svg version="1.0" xmlns="http://www.w3.org/2000/svg"
 width="100.000000pt" height="100.000000pt" viewBox="0 0 100.000000 100.000000"
 preserveAspectRatio="xMidYMid meet">
<metadata>
Created by potrace 1.14, written by Peter Selinger 2001-2017
</metadata>
<g transform="translate(0.000000,100.000000) scale(0.100000,-0.100000)"
fill="#000000" stroke="none">
<path d="M633 944 c-32 -16 -100 -83 -140 -139 l-21 -30 -50 42 c-195 165
-297 104 -213 -127 17 -46 31 -85 31 -87 0 -1 -21 -2 -47 0 -40 2 -49 -1 -58
-21 -7 -12 -36 -39 -66 -60 -65 -45 -84 -89 -53 -123 28 -32 96 -58 168 -65
84 -9 87 -11 76 -59 -5 -22 -10 -71 -10 -108 0 -115 40 -157 114 -122 34 16
111 92 143 142 19 29 33 29 33 0 0 -31 18 -47 52 -47 16 0 47 -12 70 -26 23
-15 61 -29 84 -32 35 -4 44 -1 58 19 23 34 20 103 -10 184 -36 101 -36 105 11
121 115 40 195 102 195 151 0 43 -76 87 -171 99 -30 4 -61 8 -69 10 -8 1 -19
3 -23 3 -5 1 3 15 17 32 30 36 31 39 11 65 -8 10 -15 40 -15 65 0 80 -28 130
-72 129 -7 0 -27 -8 -45 -16z m77 -23 c16 -31 13 -128 -5 -135 -24 -9 -35 -48
-21 -71 22 -35 9 -45 -57 -45 -60 0 -63 1 -99 42 l-36 42 31 45 c82 120 160
171 187 122z m-385 -65 c27 -19 67 -52 87 -73 l37 -38 -29 -51 c-25 -45 -35
-53 -74 -63 -25 -6 -50 -11 -56 -11 -18 0 -80 145 -87 202 -5 42 -3 53 11 64
25 17 52 10 111 -30z m157 -197 c-20 -4 -38 -6 -40 -4 -1 1 5 16 15 34 l18 31
22 -27 23 -28 -38 -6z m460 -60 c29 -12 42 -37 32 -62 -8 -23 -83 -65 -165
-92 l-70 -24 -29 46 c-17 26 -30 49 -30 52 0 4 8 28 18 56 15 42 23 51 47 55
32 6 153 -13 197 -31z m-345 -30 c41 -54 41 -54 26 -89 -8 -19 -19 -47 -25
-62 -11 -30 -19 -34 -98 -43 l-56 -5 -40 57 -41 58 28 62 c25 57 30 62 66 68
21 4 45 7 53 9 33 5 47 -3 87 -55z m71 29 c-6 -18 -12 -34 -13 -36 -1 -1 -14
13 -29 33 l-27 35 40 0 40 0 -11 -32z m-310 -25 c-18 -44 -24 -46 -42 -18 -16
25 -16 26 6 35 42 16 49 13 36 -17z m-69 -44 l28 -50 -17 -57 -18 -57 -68 3
c-115 5 -194 33 -194 70 0 41 89 94 142 86 34 -6 39 -4 76 41 7 8 15 15 17 15
3 0 18 -23 34 -51z m389 -122 c-38 -14 -46 -5 -31 32 l14 34 19 -29 c19 -29
19 -29 -2 -37z m-301 -11 l21 -33 -39 -1 c-21 -1 -39 0 -39 2 0 12 23 66 28
66 4 0 17 -15 29 -34z m373 -81 c40 -89 58 -178 41 -199 -20 -24 -53 -19 -104
15 -41 27 -52 44 -48 71 2 13 -48 40 -64 35 -28 -11 -26 13 4 67 29 50 34 54
83 63 29 6 54 11 56 12 2 0 16 -28 32 -64z m-199 8 c-27 -48 -29 -48 -49 -23
-25 31 -20 40 24 40 30 0 33 -2 25 -17z m-87 -34 c20 -24 36 -45 36 -48 0 -16
-110 -148 -139 -168 -42 -29 -57 -29 -72 -1 -11 20 -14 112 -6 148 2 8 7 33
12 55 4 22 12 43 17 46 5 3 33 7 62 8 52 2 55 0 90 -40z"/>
<path d="M463 570 c-27 -11 -43 -40 -43 -78 0 -67 97 -99 139 -46 35 45 24 96
-26 122 -25 14 -40 14 -70 2z"/>
</g>
</svg>
